<svg xmlns="http://www.w3.org/2000/svg" viewBox="0 0 701.73 137.03"><g id="Layer_2" data-name="Layer 2"><g id="Layer_1-2" data-name="Layer 1"><path d="M6.67,137A6.67,6.67,0,0,1,2,125.65L48.39,79.22a6.65,6.65,0,0,1,4.71-2h0a6.68,6.68,0,0,1,4.72,2A38.56,38.56,0,1,0,46.63,49L64.37,31.25A6.66,6.66,0,0,1,75.75,36V51.85L96.64,31a6.66,6.66,0,0,1,9.42,9.42L73.8,72.65a6.66,6.66,0,0,1-11.38-4.71V52.05L46.1,68.37a6.66,6.66,0,0,1-11.15-3A51.88,51.88,0,1,1,53.4,93.06l-42,42A6.65,6.65,0,0,1,6.67,137Z"/><path d="M175.63,102.18a6.74,6.74,0,0,1-1.94-5V6.93a6.77,6.77,0,0,1,1.94-5,6.78,6.78,0,0,1,7.8-1.2,8,8,0,0,1,2.4,1.8L244,79.85V6.93a6.67,6.67,0,0,1,2-5A6.81,6.81,0,0,1,250.88,0a6.59,6.59,0,0,1,4.87,1.93,6.77,6.77,0,0,1,1.93,5V97.18a6.74,6.74,0,0,1-1.93,5,6.6,6.6,0,0,1-4.87,1.94,8.18,8.18,0,0,1-3-.6,4.8,4.8,0,0,1-2.33-1.8L187.43,24.39V97.18a6.84,6.84,0,0,1-1.94,4.94,7.15,7.15,0,0,1-9.86.06Z"/><path d="M280.94,102.18A6.57,6.57,0,0,1,279,97.32V38a6.55,6.55,0,0,1,1.93-4.93A6.77,6.77,0,0,1,292.61,38V97.32a6.72,6.72,0,0,1-1.87,4.86,7.16,7.16,0,0,1-9.8,0Z"/><path d="M519.83,102.18a6.58,6.58,0,0,1-1.94-4.86V6.8a6.52,6.52,0,0,1,1.94-4.93,7.35,7.35,0,0,1,9.8,0,6.66,6.66,0,0,1,1.86,4.93V97.32a6.72,6.72,0,0,1-1.86,4.86,7.16,7.16,0,0,1-9.8,0Z"/><path d="M408,38.13q7.13,7.59,7.13,21.19V97.45a6.71,6.71,0,0,1-1.87,4.87,6.83,6.83,0,0,1-11.73-4.87V59.32q0-8.13-4.07-12.33t-10.86-4.2a14.89,14.89,0,0,0-11.4,4.8,17.28,17.28,0,0,0-4.46,12.27V97.45a6.75,6.75,0,0,1-1.87,4.87,6.83,6.83,0,0,1-11.73-4.87V59.32q0-8.13-4.07-12.33t-10.86-4.2a15,15,0,0,0-11.53,4.8,17.29,17.29,0,0,0-4.47,12.27V97.45a6.71,6.71,0,0,1-1.87,4.87,7.19,7.19,0,0,1-9.8,0,6.63,6.63,0,0,1-1.93-4.87V38.13a6.59,6.59,0,0,1,1.93-4.94,6.74,6.74,0,0,1,4.87-1.86,6.65,6.65,0,0,1,4.8,1.8,6.75,6.75,0,0,1,2,4.73,24.56,24.56,0,0,1,8.26-5.4,27.57,27.57,0,0,1,10.4-1.93,26.64,26.64,0,0,1,12.2,2.73,23.44,23.44,0,0,1,8.87,7.8,27.71,27.71,0,0,1,10-7.73,31.12,31.12,0,0,1,13.34-2.8Q400.86,30.53,408,38.13Z"/><path d="M489,35.46A33.69,33.69,0,0,1,501.3,48.72a39.82,39.82,0,0,1,4.47,18.87A37.55,37.55,0,0,1,501,86.45,35,35,0,0,1,487.7,99.78,36.83,36.83,0,0,1,469,104.65a36.11,36.11,0,0,1-18.59-4.87,35.7,35.7,0,0,1-13.2-13.33,37.1,37.1,0,0,1-4.87-18.86V6.8a6.52,6.52,0,0,1,1.94-4.93,7.34,7.34,0,0,1,9.79,0,6.63,6.63,0,0,1,1.87,4.93v36A33.57,33.57,0,0,1,489,35.46Zm-8,53.92a23.36,23.36,0,0,0,8.53-9,26.23,26.23,0,0,0,3.13-12.8,25.85,25.85,0,0,0-3.13-12.73A23.48,23.48,0,0,0,481,45.93a23.29,23.29,0,0,0-32.6,8.93,26.36,26.36,0,0,0-3.06,12.73,26.75,26.75,0,0,0,3.06,12.8,23.5,23.5,0,0,0,32.6,9Z"/><path d="M561.36,99.92a33.54,33.54,0,0,1-13.07-13.13,38.62,38.62,0,0,1-4.66-19.07,38.81,38.81,0,0,1,4.66-19.19,33.5,33.5,0,0,1,13.07-13.14,38.19,38.19,0,0,1,19.06-4.73,37.61,37.61,0,0,1,18.87,4.73,34.07,34.07,0,0,1,13.06,13.14,38.42,38.42,0,0,1,4.73,19.19,38.62,38.62,0,0,1-4.66,19.07,33.69,33.69,0,0,1-13,13.13,40.65,40.65,0,0,1-38.06,0Zm31.26-10.47a22.13,22.13,0,0,0,8.4-8.86,27.1,27.1,0,0,0,3-12.87,27.45,27.45,0,0,0-3-12.93,22,22,0,0,0-8.4-8.93,24.86,24.86,0,0,0-24.4,0,22.48,22.48,0,0,0-8.46,8.93,26.9,26.9,0,0,0-3.07,12.93,26.56,26.56,0,0,0,3.07,12.87,22.62,22.62,0,0,0,8.46,8.86,24.86,24.86,0,0,0,24.4,0Z"/><path d="M646,99.92A33.51,33.51,0,0,1,633,86.79a38.51,38.51,0,0,1-4.67-19.07A38.71,38.71,0,0,1,633,48.53,33.47,33.47,0,0,1,646,35.39a38.19,38.19,0,0,1,19.06-4.73,37.61,37.61,0,0,1,18.87,4.73A34.07,34.07,0,0,1,697,48.53a38.32,38.32,0,0,1,4.73,19.19,38.62,38.62,0,0,1-4.66,19.07,33.69,33.69,0,0,1-13,13.13,40.65,40.65,0,0,1-38.06,0Zm31.26-10.47a22.13,22.13,0,0,0,8.4-8.86,27.1,27.1,0,0,0,3-12.87,27.45,27.45,0,0,0-3-12.93,22,22,0,0,0-8.4-8.93,24.84,24.84,0,0,0-24.39,0,22.43,22.43,0,0,0-8.47,8.93,26.9,26.9,0,0,0-3.07,12.93,26.56,26.56,0,0,0,3.07,12.87,22.57,22.57,0,0,0,8.47,8.86,24.84,24.84,0,0,0,24.39,0Z"/></g></g></svg>